<?xml version="1.0" encoding="UTF-8"?>
<svg width="30px" height="31px" viewBox="0 0 30 31" version="1.1" xmlns="http://www.w3.org/2000/svg" xmlns:xlink="http://www.w3.org/1999/xlink">
    <!-- Generator: Sketch 59 (86127) - https://sketch.com -->
    <title>messeuse-icon-add</title>
    <desc>Created with Sketch.</desc>
    <g id="2.0商家端-首页" stroke="none" stroke-width="1" fill="none" fill-rule="evenodd">
        <g id="2.7-商家中心-增加技师" transform="translate(-171.000000, -127.000000)" fill="#858585">
            <g id="pic-1" transform="translate(112.000000, 84.000000)">
                <g id="编组" transform="translate(59.000000, 43.000000)">
                    <path d="M15,0.75 C15.8284271,0.75 16.5,1.42157288 16.5,2.25 L16.5,14.25 L28.5,14.25 C29.3284271,14.25 30,14.9215729 30,15.75 C30,16.5784271 29.3284271,17.25 28.5,17.25 L16.5,17.25 L16.5,29.25 C16.5,30.0784271 15.8284271,30.75 15,30.75 C14.1715729,30.75 13.5,30.0784271 13.5,29.25 L13.499,17.25 L1.5,17.25 C0.671572875,17.25 1.01453063e-16,16.5784271 0,15.75 C-1.01453063e-16,14.9215729 0.671572875,14.25 1.5,14.25 L13.5,14.25 L13.5,2.25 C13.5,1.42157288 14.1715729,0.75 15,0.75 Z" id="messeuse-icon-add"></path>
                </g>
            </g>
        </g>
    </g>
</svg>