<?xml version="1.0" standalone="no"?><!DOCTYPE svg PUBLIC "-//W3C//DTD SVG 1.1//EN" "http://www.w3.org/Graphics/SVG/1.1/DTD/svg11.dtd"><svg t="1576135615616" class="icon" viewBox="0 0 1024 1024" version="1.1" xmlns="http://www.w3.org/2000/svg" p-id="2454" data-spm-anchor-id="a313x.7781069.0.i6" xmlns:xlink="http://www.w3.org/1999/xlink" width="16" height="16"><defs><style type="text/css"></style></defs><path d="M847.52 535.24c0 165.59-148.08 288.01-330.75 288.01S186.03 700.83 186.03 535.24s148.08-16.66 330.75-16.66 330.74-148.93 330.74 16.66z" fill="#ff423c" p-id="2455" data-spm-anchor-id="a313x.7781069.0.i3" class=""></path><path d="M516.77 518.58c-133.11 0-247.77-78.96-300.24-57.8 13.77 45.53 187.01 114.41 305.76 114.41 118.74 0 281.76-68.85 294.76-114.38-52.43-21.24-167.13 57.77-300.28 57.77z" fill="#ff423c" p-id="2456"></path><path d="M649.66 516.13c0 9.57-1.18 19.02-3.19 28.11-41.58 11.69-85.4 19.14-124.27 19.14-39.81 0-85.52-7.8-129.46-19.84-2.01-8.86-2.95-18.07-2.95-27.4 0-9.92 1.06-19.49 3.19-28.7 12.99-58 64.73-101.23 126.75-101.23 61.19 0 112.69 42.41 126.27 99.58 2.36 9.66 3.66 19.82 3.66 30.34z" fill="#ff423c" p-id="2457" data-spm-anchor-id="a313x.7781069.0.i4" class=""></path><path d="M646.47 556.05c-12.88 58.23-64.73 101.82-126.75 101.82-62.49 0-114.46-43.94-126.98-102.53 43.94 12.05 89.66 19.84 129.46 19.84 38.87 0.01 82.69-7.43 124.27-19.13z" fill="#ff423c" p-id="2458" data-spm-anchor-id="a313x.7781069.0.i2" class=""></path><path d="M496.11 403.91a23.62 5.91 0 1 0 47.24 0 23.62 5.91 0 1 0-47.24 0Z" fill="#ff423c" p-id="2459"></path><path d="M329.583215 315.61308a53.16 17.72 44.999 1 0 25.059427-25.060302 53.16 17.72 44.999 1 0-25.059427 25.060302Z" fill="#ff423c" p-id="2460"></path><path d="M683.360081 340.672432a17.72 53.16 44.999 1 0 75.178281-75.180905 17.72 53.16 44.999 1 0-75.178281 75.180905Z" fill="#ff423c" p-id="2461"></path><path d="M513.82 240.98a17.72 53.16 0 1 0 35.44 0 17.72 53.16 0 1 0-35.44 0Z" fill="#ff423c" p-id="2462"></path></svg>