<?xml version="1.0" encoding="UTF-8"?>
<svg width="16px" height="18px" viewBox="0 0 16 18" version="1.1" xmlns="http://www.w3.org/2000/svg" xmlns:xlink="http://www.w3.org/1999/xlink">
    <!-- Generator: Sketch 59 (86127) - https://sketch.com -->
    <title>massagist-icon-reuplaod</title>
    <desc>Created with Sketch.</desc>
    <g id="2.0商家端-首页" stroke="none" stroke-width="1" fill="none" fill-rule="evenodd">
        <g id="2.7.1-商家中心-增加技师-提示以及照片上传后" transform="translate(-179.000000, -155.000000)" fill="#404040" fill-rule="nonzero">
            <g id="pic-1" transform="translate(112.000000, 84.000000)">
                <g id="编组" transform="translate(67.000000, 71.000000)">
                    <path d="M8.23671927,2.76543422 C12.5788932,3.11700112 16,6.39829222 16,10.3827171 C16,14.6015199 12.1841502,18 7.4472331,18 C4.42086945,18 1.5260868,16.4765434 0.0786954909,14.1327641 C-0.0528855483,13.8983861 -0.0528855483,13.5468192 0.341857538,13.3124413 C0.605019586,13.1952523 0.999762673,13.1952523 1.26292475,13.5468192 C2.57873505,15.5390317 4.94719357,16.8281103 7.57881414,16.8281103 C11.526245,16.8281103 14.8157707,13.8983861 14.8157707,10.3827171 C14.8157707,6.86704808 11.7894071,4.05451285 7.84197619,3.93732387 L9.81569162,6.7498591 C9.94727266,6.98423703 9.94727266,7.33580393 9.55252957,7.57018188 C9.28936753,7.68737086 8.89462444,7.68737086 8.63146236,7.33580396 L5.86826075,3.35137904 C5.73667971,3.11700112 5.73667971,2.76543422 6.13142283,2.53105626 L10.6051778,0.0700879393 C10.8683398,-0.0471010376 11.2630829,-0.0471010376 11.526245,0.304465893 C11.657826,0.538843819 11.657826,0.890410722 11.263083,1.12478865 L8.23671927,2.76543422 Z" id="massagist-icon-reuplaod"></path>
                </g>
            </g>
        </g>
    </g>
</svg>